<mxfile host="app.diagrams.net" modified="2023-11-24T12:22:53.944Z" agent="Mozilla/5.0 (Macintosh; Intel Mac OS X 10_15_7) AppleWebKit/537.36 (KHTML, like Gecko) Chrome/121.0.0.0 Safari/537.36 Edg/121.0.0.0" etag="iGx9KYGGlcweIPwyDrib" version="22.1.3" type="github" pages="5">
  <diagram id="iGxLTob1CFTJOu1sMd-u" name="主卧">
    <mxGraphModel dx="696" dy="409" grid="0" gridSize="10" guides="0" tooltips="1" connect="1" arrows="1" fold="1" page="0" pageScale="1" pageWidth="500" pageHeight="400" background="none" math="0" shadow="0">
      <root>
        <mxCell id="0" />
        <mxCell id="1" parent="0" />
        <mxCell id="2" value="" style="rounded=0;whiteSpace=wrap;html=1;" parent="1" vertex="1">
          <mxGeometry x="350" y="219" width="120" height="160" as="geometry" />
        </mxCell>
        <mxCell id="3" value="" style="rounded=0;whiteSpace=wrap;html=1;" parent="1" vertex="1">
          <mxGeometry x="10" y="29" width="340" height="350" as="geometry" />
        </mxCell>
        <mxCell id="4" value="&lt;font style=&quot;font-size: 7px;&quot;&gt;门&lt;/font&gt;" style="rounded=0;whiteSpace=wrap;html=1;rotation=90;" parent="1" vertex="1">
          <mxGeometry x="412" y="321" width="10" height="105" as="geometry" />
        </mxCell>
        <mxCell id="5" value="&lt;font style=&quot;font-size: 12px;&quot;&gt;窗帘盒&lt;/font&gt;" style="rounded=0;whiteSpace=wrap;html=1;" parent="1" vertex="1">
          <mxGeometry x="10" y="29" width="25" height="350" as="geometry" />
        </mxCell>
        <mxCell id="6" value="床头柜&lt;br&gt;w50h40" style="rounded=0;whiteSpace=wrap;html=1;fontSize=8;" parent="1" vertex="1">
          <mxGeometry x="35" y="339" width="50" height="40" as="geometry" />
        </mxCell>
        <mxCell id="7" value="" style="rounded=0;whiteSpace=wrap;html=1;fontSize=12;strokeWidth=0;strokeColor=none;" parent="1" vertex="1">
          <mxGeometry x="345" y="220" width="10" height="158" as="geometry" />
        </mxCell>
        <mxCell id="8" value="梳妆台&lt;br&gt;w90h50" style="rounded=0;whiteSpace=wrap;html=1;fontSize=8;" parent="1" vertex="1">
          <mxGeometry x="265" y="329" width="90" height="50" as="geometry" />
        </mxCell>
        <mxCell id="9" value="斗柜" style="rounded=0;whiteSpace=wrap;html=1;rotation=90;horizontal=0;" parent="1" vertex="1">
          <mxGeometry x="394.63" y="173.63" width="30" height="120" as="geometry" />
        </mxCell>
        <mxCell id="10" value="&lt;font style=&quot;font-size: 9px;&quot;&gt;70cm&lt;/font&gt;" style="rounded=0;whiteSpace=wrap;html=1;rotation=90;horizontal=0;strokeColor=none;" parent="1" vertex="1">
          <mxGeometry x="124" y="64" width="70" height="120" as="geometry" />
        </mxCell>
        <mxCell id="11" value="衣柜(60x315)" style="rounded=0;whiteSpace=wrap;html=1;" parent="1" vertex="1">
          <mxGeometry x="35" y="29" width="315" height="60" as="geometry" />
        </mxCell>
        <mxCell id="12" value="床(w180h220)" style="rounded=0;whiteSpace=wrap;html=1;" parent="1" vertex="1">
          <mxGeometry x="85" y="159" width="180" height="220" as="geometry" />
        </mxCell>
        <mxCell id="jFWw-1WB0AM2nuvwrmAK-12" value="" style="rounded=0;whiteSpace=wrap;html=1;fontSize=16;opacity=30;" vertex="1" parent="1">
          <mxGeometry x="35" y="29" width="45" height="60" as="geometry" />
        </mxCell>
        <mxCell id="jFWw-1WB0AM2nuvwrmAK-13" value="" style="rounded=0;whiteSpace=wrap;html=1;fontSize=16;opacity=30;" vertex="1" parent="1">
          <mxGeometry x="80" y="29" width="45" height="60" as="geometry" />
        </mxCell>
        <mxCell id="jFWw-1WB0AM2nuvwrmAK-14" value="" style="rounded=0;whiteSpace=wrap;html=1;fontSize=16;opacity=30;" vertex="1" parent="1">
          <mxGeometry x="125" y="29" width="45" height="60" as="geometry" />
        </mxCell>
        <mxCell id="jFWw-1WB0AM2nuvwrmAK-15" value="" style="rounded=0;whiteSpace=wrap;html=1;fontSize=16;opacity=30;" vertex="1" parent="1">
          <mxGeometry x="170" y="29" width="45" height="60" as="geometry" />
        </mxCell>
        <mxCell id="jFWw-1WB0AM2nuvwrmAK-16" value="" style="rounded=0;whiteSpace=wrap;html=1;fontSize=16;opacity=30;fillColor=#dae8fc;strokeColor=#6c8ebf;" vertex="1" parent="1">
          <mxGeometry x="215" y="29" width="45" height="60" as="geometry" />
        </mxCell>
        <mxCell id="jFWw-1WB0AM2nuvwrmAK-17" value="" style="rounded=0;whiteSpace=wrap;html=1;fontSize=16;opacity=30;" vertex="1" parent="1">
          <mxGeometry x="260" y="29" width="45" height="60" as="geometry" />
        </mxCell>
        <mxCell id="jFWw-1WB0AM2nuvwrmAK-18" value="" style="rounded=0;whiteSpace=wrap;html=1;fontSize=16;opacity=30;" vertex="1" parent="1">
          <mxGeometry x="305" y="29" width="45" height="60" as="geometry" />
        </mxCell>
      </root>
    </mxGraphModel>
  </diagram>
  <diagram id="X76r_KgreaUT2XttwzLK" name="次卧">
    <mxGraphModel dx="609" dy="358" grid="0" gridSize="10" guides="1" tooltips="1" connect="1" arrows="1" fold="1" page="0" pageScale="1" pageWidth="400" pageHeight="400" math="0" shadow="0">
      <root>
        <mxCell id="0" />
        <mxCell id="1" parent="0" />
        <mxCell id="YC-ziz15fnvhEWZhQmtj-1" value="" style="rounded=0;whiteSpace=wrap;html=1;" parent="1" vertex="1">
          <mxGeometry x="48" y="93" width="340" height="270" as="geometry" />
        </mxCell>
        <mxCell id="YC-ziz15fnvhEWZhQmtj-2" value="" style="rounded=0;whiteSpace=wrap;html=1;fontSize=7;" parent="1" vertex="1">
          <mxGeometry x="23" y="93" width="25" height="60" as="geometry" />
        </mxCell>
        <mxCell id="YC-ziz15fnvhEWZhQmtj-3" value="&lt;font style=&quot;font-size: 9px;&quot;&gt;窗帘盒&lt;/font&gt;" style="rounded=0;whiteSpace=wrap;html=1;" parent="1" vertex="1">
          <mxGeometry x="48" y="93" width="15" height="270" as="geometry" />
        </mxCell>
        <mxCell id="YC-ziz15fnvhEWZhQmtj-4" value="&amp;nbsp; 空调" style="rounded=0;whiteSpace=wrap;html=1;" parent="1" vertex="1">
          <mxGeometry x="262" y="93" width="125" height="55" as="geometry" />
        </mxCell>
        <mxCell id="YC-ziz15fnvhEWZhQmtj-5" value="&lt;font style=&quot;font-size: 9px;&quot;&gt;推&lt;br&gt;拉&lt;br&gt;门&lt;/font&gt;" style="rounded=0;whiteSpace=wrap;html=1;" parent="1" vertex="1">
          <mxGeometry x="23" y="153" width="25" height="150" as="geometry" />
        </mxCell>
        <mxCell id="YC-ziz15fnvhEWZhQmtj-6" style="edgeStyle=none;html=1;fontSize=9;" parent="1" source="YC-ziz15fnvhEWZhQmtj-7" edge="1">
          <mxGeometry relative="1" as="geometry">
            <mxPoint x="207" y="190" as="targetPoint" />
            <Array as="points" />
          </mxGeometry>
        </mxCell>
        <mxCell id="YC-ziz15fnvhEWZhQmtj-7" value="&lt;font style=&quot;font-size: 9px;&quot;&gt;过道(65)&lt;/font&gt;" style="rounded=0;whiteSpace=wrap;html=1;fontSize=7;strokeColor=none;" parent="1" vertex="1">
          <mxGeometry x="193" y="149" width="90" height="64" as="geometry" />
        </mxCell>
        <mxCell id="YC-ziz15fnvhEWZhQmtj-8" value="椅子(60x60)" style="rounded=1;whiteSpace=wrap;html=1;fontSize=7;" parent="1" vertex="1">
          <mxGeometry x="88" y="258" width="60" height="60" as="geometry" />
        </mxCell>
        <mxCell id="YC-ziz15fnvhEWZhQmtj-9" value="桌子(110x60)" style="rounded=0;whiteSpace=wrap;html=1;fontSize=7;" parent="1" vertex="1">
          <mxGeometry x="63" y="303" width="110" height="60" as="geometry" />
        </mxCell>
        <mxCell id="YC-ziz15fnvhEWZhQmtj-10" value="" style="rounded=0;whiteSpace=wrap;html=1;fontSize=7;" parent="1" vertex="1">
          <mxGeometry x="23" y="303" width="25" height="60" as="geometry" />
        </mxCell>
        <mxCell id="YC-ziz15fnvhEWZhQmtj-11" value="床(w150h215)" style="rounded=0;whiteSpace=wrap;html=1;" parent="1" vertex="1">
          <mxGeometry x="173" y="213" width="215" height="150" as="geometry" />
        </mxCell>
        <mxCell id="YC-ziz15fnvhEWZhQmtj-12" value="衣柜(55x200)" style="rounded=0;whiteSpace=wrap;html=1;" parent="1" vertex="1">
          <mxGeometry x="63" y="93" width="200" height="55" as="geometry" />
        </mxCell>
        <mxCell id="YC-ziz15fnvhEWZhQmtj-14" value="&lt;font style=&quot;font-size: 7px;&quot;&gt;门&lt;/font&gt;" style="rounded=0;whiteSpace=wrap;html=1;" parent="1" vertex="1">
          <mxGeometry x="298" y="93" width="90" height="10" as="geometry" />
        </mxCell>
        <mxCell id="iZ8hNC7S2IU6sly-sq2m-1" value="开&lt;br&gt;放&lt;br&gt;格" style="rounded=0;whiteSpace=wrap;html=1;fontSize=7;" vertex="1" parent="1">
          <mxGeometry x="263" y="93" width="20" height="55" as="geometry" />
        </mxCell>
        <mxCell id="YC-ziz15fnvhEWZhQmtj-13" value="&lt;font style=&quot;font-size: 7px;&quot;&gt;门&lt;/font&gt;" style="rounded=0;whiteSpace=wrap;html=1;" parent="1" vertex="1">
          <mxGeometry x="378" y="93" width="10" height="105" as="geometry" />
        </mxCell>
      </root>
    </mxGraphModel>
  </diagram>
  <diagram id="aLSxvwJ0gBWf9LIRor2G" name="儿童房">
    <mxGraphModel dx="609" dy="358" grid="0" gridSize="10" guides="1" tooltips="1" connect="1" arrows="1" fold="1" page="0" pageScale="1" pageWidth="500" pageHeight="400" math="0" shadow="0">
      <root>
        <mxCell id="0" />
        <mxCell id="1" parent="0" />
        <mxCell id="jQ-a7CguUcNQit3pCRuz-1" value="" style="rounded=0;whiteSpace=wrap;html=1;" parent="1" vertex="1">
          <mxGeometry x="22" y="65" width="285" height="260" as="geometry" />
        </mxCell>
        <mxCell id="jQ-a7CguUcNQit3pCRuz-5" value="椅子" style="rounded=1;whiteSpace=wrap;html=1;strokeColor=#000000;" parent="1" vertex="1">
          <mxGeometry x="62" y="113" width="60" height="60" as="geometry" />
        </mxCell>
        <mxCell id="jQ-a7CguUcNQit3pCRuz-6" value="&lt;br&gt;&lt;br&gt;桌子(140x70)" style="rounded=0;whiteSpace=wrap;html=1;" parent="1" vertex="1">
          <mxGeometry x="22" y="65" width="140" height="70" as="geometry" />
        </mxCell>
        <mxCell id="jQ-a7CguUcNQit3pCRuz-7" value="吊柜" style="rounded=0;whiteSpace=wrap;html=1;opacity=10;" parent="1" vertex="1">
          <mxGeometry x="22" y="65" width="140" height="35" as="geometry" />
        </mxCell>
        <mxCell id="jQ-a7CguUcNQit3pCRuz-8" value="&lt;font style=&quot;font-size: 10px;&quot;&gt;空调&lt;/font&gt;" style="rounded=0;whiteSpace=wrap;html=1;" parent="1" vertex="1">
          <mxGeometry x="22" y="270" width="105" height="55" as="geometry" />
        </mxCell>
        <mxCell id="jQ-a7CguUcNQit3pCRuz-9" value="&lt;font style=&quot;font-size: 7px;&quot;&gt;门&lt;/font&gt;" style="rounded=0;whiteSpace=wrap;html=1;" parent="1" vertex="1">
          <mxGeometry x="22" y="220" width="10" height="105" as="geometry" />
        </mxCell>
        <mxCell id="jQ-a7CguUcNQit3pCRuz-10" value="&lt;font style=&quot;font-size: 7px;&quot;&gt;门&lt;/font&gt;" style="rounded=0;whiteSpace=wrap;html=1;rotation=90;" parent="1" vertex="1">
          <mxGeometry x="62" y="275" width="10" height="90" as="geometry" />
        </mxCell>
        <mxCell id="jQ-a7CguUcNQit3pCRuz-11" value="&lt;br&gt;衣柜高 285 - 30 = 250&lt;br&gt;&lt;br&gt;床&lt;br&gt;205x135x50&lt;br&gt;190x135x20&lt;br&gt;&lt;br&gt;" style="text;html=1;strokeColor=none;fillColor=none;align=left;verticalAlign=middle;whiteSpace=wrap;rounded=0;" parent="1" vertex="1">
          <mxGeometry x="322" y="97" width="163" height="223" as="geometry" />
        </mxCell>
        <mxCell id="jQ-a7CguUcNQit3pCRuz-2" value="床(w135h205)" style="rounded=0;whiteSpace=wrap;html=1;" parent="1" vertex="1">
          <mxGeometry x="172" y="65" width="135" height="205" as="geometry" />
        </mxCell>
        <mxCell id="jQ-a7CguUcNQit3pCRuz-3" value="&lt;font style=&quot;font-size: 8px;&quot;&gt;窗帘盒&lt;/font&gt;" style="rounded=0;whiteSpace=wrap;html=1;strokeColor=#4e4646;" parent="1" vertex="1">
          <mxGeometry x="292" y="65" width="15" height="205" as="geometry" />
        </mxCell>
        <mxCell id="jQ-a7CguUcNQit3pCRuz-4" value="衣柜(55x180)" style="rounded=0;whiteSpace=wrap;html=1;shadow=0;glass=0;opacity=50;" parent="1" vertex="1">
          <mxGeometry x="127" y="270" width="180" height="55" as="geometry" />
        </mxCell>
        <mxCell id="B5NzgowoITlGc32n17o3-1" value="" style="rounded=0;whiteSpace=wrap;html=1;shadow=0;glass=0;opacity=50;" vertex="1" parent="1">
          <mxGeometry x="127" y="270" width="45" height="55" as="geometry" />
        </mxCell>
        <mxCell id="B5NzgowoITlGc32n17o3-2" value="" style="rounded=0;whiteSpace=wrap;html=1;shadow=0;glass=0;opacity=50;" vertex="1" parent="1">
          <mxGeometry x="172" y="270" width="45" height="55" as="geometry" />
        </mxCell>
        <mxCell id="B5NzgowoITlGc32n17o3-3" value="" style="rounded=0;whiteSpace=wrap;html=1;shadow=0;glass=0;opacity=50;" vertex="1" parent="1">
          <mxGeometry x="217" y="270" width="45" height="55" as="geometry" />
        </mxCell>
        <mxCell id="KD2zoA76d-t-va_rwXCo-1" value="&lt;span style=&quot;font-size: 4px;&quot;&gt;白&lt;br&gt;板&lt;/span&gt;" style="rounded=0;whiteSpace=wrap;html=1;" vertex="1" parent="1">
          <mxGeometry x="22" y="137" width="5" height="80" as="geometry" />
        </mxCell>
      </root>
    </mxGraphModel>
  </diagram>
  <diagram id="-19VYibgQqfg_9gxcEhi" name="书房">
    <mxGraphModel dx="580" dy="340" grid="0" gridSize="10" guides="1" tooltips="1" connect="1" arrows="1" fold="1" page="0" pageScale="1" pageWidth="400" pageHeight="400" math="0" shadow="0">
      <root>
        <mxCell id="0" />
        <mxCell id="1" parent="0" />
        <mxCell id="GJgxfpKIy5aZmgsc_Pyk-1" value="" style="rounded=0;whiteSpace=wrap;html=1;" parent="1" vertex="1">
          <mxGeometry x="60" y="89" width="275" height="215" as="geometry" />
        </mxCell>
        <mxCell id="GJgxfpKIy5aZmgsc_Pyk-2" value="" style="rounded=1;whiteSpace=wrap;html=1;rotation=-180;" parent="1" vertex="1">
          <mxGeometry x="213" y="120" width="70" height="35" as="geometry" />
        </mxCell>
        <mxCell id="GJgxfpKIy5aZmgsc_Pyk-3" value="钢琴(w140h35)" style="rounded=0;whiteSpace=wrap;html=1;rotation=0;fontSize=9;" parent="1" vertex="1">
          <mxGeometry x="178" y="89" width="140" height="35" as="geometry" />
        </mxCell>
        <mxCell id="GJgxfpKIy5aZmgsc_Pyk-4" value="书柜&lt;br&gt;50x110" style="rounded=0;whiteSpace=wrap;html=1;fontSize=9;" parent="1" vertex="1">
          <mxGeometry x="60" y="194" width="50" height="110" as="geometry" />
        </mxCell>
        <mxCell id="GJgxfpKIy5aZmgsc_Pyk-5" value="椅子(60x60)" style="rounded=1;whiteSpace=wrap;html=1;rotation=0;fontSize=9;" parent="1" vertex="1">
          <mxGeometry x="137" y="181" width="60" height="60" as="geometry" />
        </mxCell>
        <mxCell id="GJgxfpKIy5aZmgsc_Pyk-6" value="椅子(60x60)" style="rounded=1;whiteSpace=wrap;html=1;rotation=0;fontSize=9;glass=0;shadow=0;" parent="1" vertex="1">
          <mxGeometry x="236" y="181" width="60" height="60" as="geometry" />
        </mxCell>
        <mxCell id="GJgxfpKIy5aZmgsc_Pyk-7" value="书桌(w210h70)&lt;br style=&quot;font-size: 9px;&quot;&gt;&amp;nbsp;&lt;br style=&quot;font-size: 9px;&quot;&gt;&amp;nbsp;&lt;br&gt;" style="rounded=0;whiteSpace=wrap;html=1;fontSize=9;" parent="1" vertex="1">
          <mxGeometry x="110" y="234" width="210" height="70" as="geometry" />
        </mxCell>
        <mxCell id="GJgxfpKIy5aZmgsc_Pyk-8" value="&lt;font style=&quot;font-size: 6px;&quot;&gt;窗&lt;br&gt;帘&lt;br&gt;盒&lt;/font&gt;" style="rounded=0;whiteSpace=wrap;html=1;" parent="1" vertex="1">
          <mxGeometry x="320" y="89" width="15" height="215" as="geometry" />
        </mxCell>
        <mxCell id="GJgxfpKIy5aZmgsc_Pyk-9" value="吊柜(w210h30)" style="rounded=0;whiteSpace=wrap;html=1;dashed=1;fontSize=9;" parent="1" vertex="1">
          <mxGeometry x="110" y="269" width="210" height="35" as="geometry" />
        </mxCell>
        <mxCell id="GJgxfpKIy5aZmgsc_Pyk-10" value="空调" style="rounded=0;whiteSpace=wrap;html=1;fontSize=9;" parent="1" vertex="1">
          <mxGeometry x="60" y="89" width="50" height="107.5" as="geometry" />
        </mxCell>
        <mxCell id="GJgxfpKIy5aZmgsc_Pyk-11" value="&lt;font style=&quot;font-size: 7px;&quot;&gt;门&lt;/font&gt;" style="rounded=0;whiteSpace=wrap;html=1;" parent="1" vertex="1">
          <mxGeometry x="60" y="89" width="10" height="105" as="geometry" />
        </mxCell>
      </root>
    </mxGraphModel>
  </diagram>
  <diagram id="CqVg6Tqw2GVn2pjmF0fm" name="数据">
    <mxGraphModel dx="1218" dy="715" grid="0" gridSize="10" guides="1" tooltips="1" connect="1" arrows="1" fold="1" page="0" pageScale="1" pageWidth="827" pageHeight="1169" math="0" shadow="0">
      <root>
        <mxCell id="0" />
        <mxCell id="1" parent="0" />
        <mxCell id="tDvGOe3y-nwsubzZe5mj-1" value="&lt;font style=&quot;font-size: 18px;&quot;&gt;&lt;span style=&quot;color: rgb(0, 0, 0); font-family: Helvetica; font-style: normal; font-variant-ligatures: normal; font-variant-caps: normal; font-weight: 400; letter-spacing: normal; orphans: 2; text-align: left; text-indent: 0px; text-transform: none; widows: 2; word-spacing: 0px; -webkit-text-stroke-width: 0px; background-color: rgb(251, 251, 251); text-decoration-thickness: initial; text-decoration-style: initial; text-decoration-color: initial; float: none; display: inline !important;&quot;&gt;层高 285&amp;nbsp; 吊顶30&lt;/span&gt;&lt;br style=&quot;border-color: var(--border-color); color: rgb(0, 0, 0); font-family: Helvetica; font-style: normal; font-variant-ligatures: normal; font-variant-caps: normal; font-weight: 400; letter-spacing: normal; orphans: 2; text-align: left; text-indent: 0px; text-transform: none; widows: 2; word-spacing: 0px; -webkit-text-stroke-width: 0px; background-color: rgb(251, 251, 251); text-decoration-thickness: initial; text-decoration-style: initial; text-decoration-color: initial;&quot;&gt;&lt;span style=&quot;color: rgb(0, 0, 0); font-family: Helvetica; font-style: normal; font-variant-ligatures: normal; font-variant-caps: normal; font-weight: 400; letter-spacing: normal; orphans: 2; text-align: left; text-indent: 0px; text-transform: none; widows: 2; word-spacing: 0px; -webkit-text-stroke-width: 0px; background-color: rgb(251, 251, 251); text-decoration-thickness: initial; text-decoration-style: initial; text-decoration-color: initial; float: none; display: inline !important;&quot;&gt;&lt;br&gt;空调&lt;/span&gt;&lt;span style=&quot;color: rgb(0, 0, 0); font-family: Helvetica; font-style: normal; font-variant-ligatures: normal; font-variant-caps: normal; font-weight: 400; letter-spacing: normal; orphans: 2; text-align: left; text-indent: 0px; text-transform: none; widows: 2; word-spacing: 0px; -webkit-text-stroke-width: 0px; background-color: rgb(251, 251, 251); text-decoration-thickness: initial; text-decoration-style: initial; text-decoration-color: initial; float: none; display: inline !important;&quot;&gt;&lt;br&gt;19.2 70.0 44.7&lt;/span&gt;&lt;br style=&quot;border-color: var(--border-color); color: rgb(0, 0, 0); font-family: Helvetica; font-style: normal; font-variant-ligatures: normal; font-variant-caps: normal; font-weight: 400; letter-spacing: normal; orphans: 2; text-align: left; text-indent: 0px; text-transform: none; widows: 2; word-spacing: 0px; -webkit-text-stroke-width: 0px; background-color: rgb(251, 251, 251); text-decoration-thickness: initial; text-decoration-style: initial; text-decoration-color: initial;&quot;&gt;&lt;span style=&quot;color: rgb(0, 0, 0); font-family: Helvetica; font-style: normal; font-variant-ligatures: normal; font-variant-caps: normal; font-weight: 400; letter-spacing: normal; orphans: 2; text-align: left; text-indent: 0px; text-transform: none; widows: 2; word-spacing: 0px; -webkit-text-stroke-width: 0px; background-color: rgb(251, 251, 251); text-decoration-thickness: initial; text-decoration-style: initial; text-decoration-color: initial; float: none; display: inline !important;&quot;&gt;19.2 91.0 44.7&lt;/span&gt;&lt;br style=&quot;border-color: var(--border-color); color: rgb(0, 0, 0); font-family: Helvetica; font-style: normal; font-variant-ligatures: normal; font-variant-caps: normal; font-weight: 400; letter-spacing: normal; orphans: 2; text-align: left; text-indent: 0px; text-transform: none; widows: 2; word-spacing: 0px; -webkit-text-stroke-width: 0px; background-color: rgb(251, 251, 251); text-decoration-thickness: initial; text-decoration-style: initial; text-decoration-color: initial;&quot;&gt;&lt;span style=&quot;color: rgb(0, 0, 0); font-family: Helvetica; font-style: normal; font-variant-ligatures: normal; font-variant-caps: normal; font-weight: 400; letter-spacing: normal; orphans: 2; text-align: left; text-indent: 0px; text-transform: none; widows: 2; word-spacing: 0px; -webkit-text-stroke-width: 0px; background-color: rgb(251, 251, 251); text-decoration-thickness: initial; text-decoration-style: initial; text-decoration-color: initial; float: none; display: inline !important;&quot;&gt;19.2 118&amp;nbsp; 44.7&lt;/span&gt;&lt;/font&gt;" style="text;whiteSpace=wrap;html=1;" parent="1" vertex="1">
          <mxGeometry x="140" y="20" width="250" height="160" as="geometry" />
        </mxCell>
        <mxCell id="XeR-BjNvQ02qMweh0LW1-1" value="&lt;span style=&quot;font-size: 18px;&quot;&gt;玄关&amp;nbsp; &amp;nbsp; &amp;nbsp; &amp;nbsp; 1.70 x 2.35&lt;br&gt;厨房&amp;nbsp; &amp;nbsp; &amp;nbsp; &amp;nbsp; 1.75 x 3.90&lt;br&gt;客厅&amp;nbsp; &amp;nbsp; &amp;nbsp; &amp;nbsp; 4.80 x 3.90&lt;br&gt;餐厅&amp;nbsp; &amp;nbsp; &amp;nbsp; &amp;nbsp; 2.90 x 3.90&lt;br&gt;&lt;br&gt;主卧&amp;nbsp; &amp;nbsp; &amp;nbsp; &amp;nbsp; 3.50 x 3.40&lt;br&gt;次卧&amp;nbsp; &amp;nbsp; &amp;nbsp; &amp;nbsp; 2.70 x 3.40&lt;br&gt;儿童&amp;nbsp; &amp;nbsp; &amp;nbsp; &amp;nbsp; 2.60 x 2.85&lt;br&gt;书房&amp;nbsp; &amp;nbsp; &amp;nbsp; &amp;nbsp; 2.15 x 2.75&amp;nbsp;&lt;br&gt;&lt;br&gt;主卫&amp;nbsp; &amp;nbsp; &amp;nbsp; &amp;nbsp; 1.70 x 2.00&lt;br&gt;客卫&amp;nbsp; &amp;nbsp; &amp;nbsp; &amp;nbsp; 1.60 x 2.85&lt;br&gt;&lt;br&gt;阳台&amp;nbsp; &amp;nbsp; &amp;nbsp; &amp;nbsp; 1.15 x 6.80&lt;br&gt;&lt;/span&gt;" style="text;html=1;strokeColor=none;fillColor=none;align=left;verticalAlign=middle;whiteSpace=wrap;rounded=0;" parent="1" vertex="1">
          <mxGeometry x="140" y="160" width="280" height="380" as="geometry" />
        </mxCell>
      </root>
    </mxGraphModel>
  </diagram>
</mxfile>
